# Blender 4.5.3 LTS
# www.blender.org
mtllib diamond.mtl
o Diamond
v 0.000000 -0.000000 -1.000000
v -0.587785 -0.000000 -0.809017
v -0.951057 -0.000000 -0.309017
v -0.951057 0.000000 0.309017
v -0.587785 0.000000 0.809017
v 0.000000 0.000000 1.000000
v 0.587785 0.000000 0.809017
v 0.951057 0.000000 0.309017
v 0.951057 -0.000000 -0.309017
v 0.587785 -0.000000 -0.809017
v 0.000000 0.350000 -0.500000
v -0.293893 0.350000 -0.404509
v -0.475528 0.350000 -0.154508
v -0.475528 0.350000 0.154509
v -0.293893 0.350000 0.404509
v 0.000000 0.350000 0.500000
v 0.293893 0.350000 0.404509
v 0.475528 0.350000 0.154509
v 0.475528 0.350000 -0.154508
v 0.293893 0.350000 -0.404509
v 0.000000 -1.000000 0.000000
vn -0.4796 -0.8054 0.3484
vn -0.1832 -0.8054 -0.5638
vn 0.5928 -0.8054 -0.0000
vn -0.1832 -0.8054 0.5638
vn -0.4796 -0.8054 -0.3484
vn 0.4796 -0.8054 -0.3484
vn 0.1832 -0.8054 0.5638
vn -0.5928 -0.8054 -0.0000
vn 0.1832 -0.8054 -0.5638
vn 0.4796 -0.8054 0.3484
vn -0.0000 -1.0000 -0.0000
vn -0.5862 0.6892 0.4259
vn -0.2239 0.6892 -0.6892
vn 0.7246 0.6892 -0.0000
vn -0.2239 0.6892 0.6892
vn -0.5862 0.6892 -0.4259
vn 0.5862 0.6892 -0.4259
vn 0.2239 0.6892 0.6892
vn -0.7246 0.6892 -0.0000
vn 0.2239 0.6892 -0.6892
vn 0.5862 0.6892 0.4259
vt 0.793893 0.904508
vt 0.737764 0.577254
vt 0.646946 0.702254
vt 0.793893 0.095491
vt 0.500000 0.250000
vt 0.646946 0.297746
vt 0.024472 0.345491
vt 0.262236 0.577254
vt 0.262236 0.422746
vt 0.500000 1.000000
vt 0.500000 0.750000
vt 0.975528 0.345491
vt 0.737764 0.422746
vt 0.206107 0.095491
vt 0.353054 0.297746
vt 0.206107 0.904508
vt 0.353054 0.702254
vt 0.975528 0.654508
vt 0.500000 0.000000
vt 0.024472 0.654508
vt 0.500000 0.500000
vt 0.654508 0.543651
vt 0.345491 0.543651
vt 0.500000 0.043651
s 1
f 10/1/1 19/2/1 20/3/1
f 7/4/2 16/5/2 17/6/2
f 4/7/3 13/8/3 14/9/3
f 1/10/4 20/3/4 11/11/4
f 8/12/5 17/6/5 18/13/5
f 5/14/6 14/9/6 15/15/6
f 2/16/7 11/11/7 12/17/7
f 9/18/8 18/13/8 19/2/8
f 6/19/9 15/15/9 16/5/9
f 3/20/10 12/17/10 13/8/10
f 19/2/11 15/15/11 13/8/11
f 9/18/12 10/1/12 21/21/12
f 6/19/13 7/4/13 21/21/13
f 3/22/14 4/23/14 21/24/14
f 10/1/15 1/10/15 21/21/15
f 7/4/16 8/12/16 21/21/16
f 4/7/17 5/14/17 21/21/17
f 1/10/18 2/16/18 21/21/18
f 8/23/19 9/22/19 21/24/19
f 5/14/20 6/19/20 21/21/20
f 2/16/21 3/20/21 21/21/21
f 10/1/1 9/18/1 19/2/1
f 7/4/2 6/19/2 16/5/2
f 4/7/3 3/20/3 13/8/3
f 1/10/4 10/1/4 20/3/4
f 8/12/5 7/4/5 17/6/5
f 5/14/6 4/7/6 14/9/6
f 2/16/7 1/10/7 11/11/7
f 9/18/8 8/12/8 18/13/8
f 6/19/9 5/14/9 15/15/9
f 3/20/10 2/16/10 12/17/10
f 13/8/11 12/17/11 11/11/11
f 11/11/11 20/3/11 19/2/11
f 19/2/11 18/13/11 17/6/11
f 17/6/11 16/5/11 15/15/11
f 15/15/11 14/9/11 13/8/11
f 13/8/11 11/11/11 19/2/11
f 19/2/11 17/6/11 15/15/11
